<?xml version="1.0"?>
<svg xmlns="http://www.w3.org/2000/svg" viewBox="0 0 512 512" width="512" height="512" fill="#EEFBFB"><g id="Out_line" data-name="Out line"><path d="M495.84473,318.43066l-16-80a8.00215,8.00215,0,0,0-5.64649-6.123l-54.7998-15.65723L396.4375,201.34375A8.00221,8.00221,0,0,0,392,200h-8V129.99072l38.68555,6.44483a8.00033,8.00033,0,0,0,2.6289-15.78321L392,115.10229v-3.15991A63.93405,63.93405,0,0,0,266.6377,94.21753L233.31445,88.666a8.00032,8.00032,0,1,0-2.6289,15.7832L264,109.99927v9.89331l-7.8916,47.34961a8.00069,8.00069,0,0,0,4.31348,8.4707l12.72753,6.36328,6.86158,26.96826-11.40943,7.606-54.7998,15.65723a8.00409,8.00409,0,0,0-4.957,4.11426l-28,56,14.31054,7.15624L221.582,246.72559,264,234.6062v90.29224l-16,11.49975V288H232v24H200v16h32v56h16V356.10181L276.669,335.49609A8.001,8.001,0,0,0,280,329V267.84473l16-12.80005V320a8.00039,8.00039,0,0,0,8,8h80a8.00039,8.00039,0,0,0,8-8V255.04468l16,12.80005V338.3623L302.61426,376H280a32.03667,32.03667,0,0,0-32,32v8H210.98413a19.26755,19.26755,0,0,0-.83179-9.75781L178.207,316.793A19.317,19.317,0,0,0,160.05371,304H40a19.27415,19.27415,0,0,0-18.15234,25.75781L53.51123,418.418A23.99713,23.99713,0,0,0,64,464H296a23.99761,23.99761,0,0,0,22.12939-33.28638L424,404.24585V448H336v16h96a8.00039,8.00039,0,0,0,8-8V400.24585l33.94043-8.48511A7.99866,7.99866,0,0,0,480,384V328h8a8.00012,8.00012,0,0,0,7.84473-9.56934ZM478.24121,312H424V234.6062l41.1123,11.74634ZM368,176.55762v.49414l-8-5.333V155.87109a19.32429,19.32429,0,0,0-29.582-16.36621l-3.2627-6.52539a7.99816,7.99816,0,0,0-4.625-4.01172L280,114.792v-2.1272l88,14.66041ZM335.94434,64.65918A47.78454,47.78454,0,0,1,376,111.94238v.49439L282.56445,96.87085A47.893,47.893,0,0,1,335.94434,64.65918Zm-63.082,99.38574,5.49-32.93652,35.97388,11.99121,6.51856,13.03613a8.001,8.001,0,0,0,12.8125,2.0791l4.6875-4.68847A3.31387,3.31387,0,0,1,344,155.87109v17.37207a3.31318,3.31318,0,0,1-5.65723,2.34278l-4.68652-4.68555-11.3125,11.31445,4.68457,4.6836a19.279,19.279,0,0,0,27.13184.15625L368,196.28125v30.77441l-24,12-24-12V211.31348l5.65723-5.65625a8.00053,8.00053,0,1,0-11.31446-11.31446L308.68652,200H294.21973l-6.4668-25.415a8.00042,8.00042,0,0,0-4.17481-5.18262ZM280,228.28125,298.42188,216H304v12.15527l-24,19.2ZM312,312V242.24463l1.00024-.80029L336,252.94434V312Zm64,0H352V252.94434l22.99976-11.5L376,242.24463Zm8-83.84473V216h5.57812L408,228.28125v19.074ZM160.05371,320a3.28143,3.28143,0,0,1,3.085,2.17383L195.084,411.624A3.274,3.274,0,0,1,192,416h-8.05371a3.28143,3.28143,0,0,1-3.085-2.17383L148.916,324.376A3.274,3.274,0,0,1,152,320ZM37.32227,321.38867A3.204,3.204,0,0,1,40,320h93.01587a19.26755,19.26755,0,0,0,.83179,9.75781L164.64771,416H71.94629a3.28143,3.28143,0,0,1-3.085-2.17383L36.916,324.376A3.20033,3.20033,0,0,1,37.32227,321.38867ZM56,440a8.00917,8.00917,0,0,1,8-8H185.37622a23.94021,23.94021,0,0,0,0,16H64A8.00917,8.00917,0,0,1,56,440Zm240,8H208a8,8,0,0,1,0-16h88a8,8,0,0,1,0,16Zm168-70.24609L311.01562,416H264v-8a16.01833,16.01833,0,0,1,16-16h24a7.99265,7.99265,0,0,0,2.69043-.46582l112-40A8.0003,8.0003,0,0,0,424,344V328h40Z"/></g></svg>
